<svg width="38" height="38" viewBox="0 0 38 38" fill="none" xmlns="http://www.w3.org/2000/svg">
<path opacity="0.1" fill-rule="evenodd" clip-rule="evenodd" d="M0 19C0 8.50659 8.50659 0 19 0C29.4934 0 38 8.50659 38 19C38 29.4934 29.4934 38 19 38C8.50659 38 0 29.4934 0 19Z" fill="#252323"/>
<path d="M23.2792 19.6068L23.8493 16.1942H20.2831V13.9806C20.2831 13.0467 20.7804 12.1359 22.3776 12.1359H24V9.23058C24 9.23058 22.5283 9 21.1219 9C18.1836 9 16.2648 10.6348 16.2648 13.5932V16.1942H13V19.6068H16.2648V27.857C16.9203 27.9516 17.5909 28 18.274 28C18.9571 28 19.6276 27.9516 20.2831 27.857V19.6068H23.2792Z" fill="#252323"/>
</svg>
