<svg width="38" height="38" viewBox="0 0 38 38" fill="none" xmlns="http://www.w3.org/2000/svg">
<path opacity="0.1" fill-rule="evenodd" clip-rule="evenodd" d="M0 19C0 8.50659 8.50659 0 19 0C29.4934 0 38 8.50659 38 19C38 29.4934 29.4934 38 19 38C8.50659 38 0 29.4934 0 19Z" fill="#252323"/>
<path fill-rule="evenodd" clip-rule="evenodd" d="M19.0009 8.86621C16.2488 8.86621 15.9035 8.87824 14.8226 8.92743C13.7438 8.97683 13.0074 9.14762 12.3631 9.39822C11.6966 9.65704 11.1313 10.0033 10.568 10.5667C10.0043 11.13 9.6581 11.6953 9.39843 12.3616C9.14721 13.0061 8.97621 13.7427 8.92765 14.8211C8.8793 15.902 8.86664 16.2476 8.86664 18.9996C8.86664 21.7517 8.87888 22.096 8.92786 23.1769C8.97747 24.2557 9.14826 24.9921 9.39864 25.6364C9.65768 26.3029 10.0039 26.8683 10.5674 27.4315C11.1304 27.9952 11.6958 28.3423 12.3618 28.6011C13.0066 28.8517 13.7431 29.0225 14.8217 29.0719C15.9026 29.1211 16.2478 29.1331 18.9997 29.1331C21.7519 29.1331 22.0963 29.1211 23.1772 29.0719C24.256 29.0225 24.9932 28.8517 25.6379 28.6011C26.3042 28.3423 26.8687 27.9952 27.4317 27.4315C27.9954 26.8683 28.3416 26.3029 28.6013 25.6366C28.8504 24.9921 29.0214 24.2555 29.0721 23.1772C29.1206 22.0963 29.1333 21.7517 29.1333 18.9996C29.1333 16.2476 29.1206 15.9022 29.0721 14.8213C29.0214 13.7425 28.8504 13.0061 28.6013 12.3618C28.3416 11.6953 27.9954 11.13 27.4317 10.5667C26.8681 10.0031 26.3044 9.65683 25.6373 9.39822C24.9913 9.14762 24.2545 8.97683 23.1757 8.92743C22.0948 8.87824 21.7507 8.86621 18.9978 8.86621H19.0009ZM18.0918 10.6923C18.3616 10.6919 18.6627 10.6923 19.0009 10.6923C21.7065 10.6923 22.0272 10.702 23.0956 10.7506C24.0836 10.7958 24.6199 10.9608 24.9771 11.0996C25.45 11.2832 25.7871 11.5028 26.1416 11.8574C26.4962 12.2121 26.7158 12.5499 26.8999 13.0228C27.0386 13.3796 27.2039 13.9158 27.2489 14.9038C27.2974 15.972 27.308 16.2929 27.308 18.9973C27.308 21.7017 27.2974 22.0226 27.2489 23.0908C27.2037 24.0788 27.0386 24.615 26.8999 24.9718C26.7162 25.4447 26.4962 25.7814 26.1416 26.1359C25.7869 26.4906 25.4502 26.7101 24.9771 26.8938C24.6203 27.0331 24.0836 27.1978 23.0956 27.243C22.0274 27.2915 21.7065 27.3021 19.0009 27.3021C16.295 27.3021 15.9744 27.2915 14.9061 27.243C13.9181 27.1974 13.3819 27.0323 13.0245 26.8936C12.5516 26.7099 12.2138 26.4903 11.8591 26.1357C11.5045 25.781 11.2849 25.4441 11.1008 24.971C10.9621 24.6142 10.7968 24.078 10.7518 23.0899C10.7033 22.0217 10.6936 21.7008 10.6936 18.9948C10.6936 16.2887 10.7033 15.9695 10.7518 14.9013C10.797 13.9133 10.9621 13.377 11.1008 13.0198C11.2845 12.5469 11.5045 12.2092 11.8591 11.8545C12.2138 11.4998 12.5516 11.2803 13.0245 11.0962C13.3817 10.9568 13.9181 10.7922 14.9061 10.7468C15.8409 10.7046 16.2032 10.6919 18.0918 10.6898V10.6923ZM24.41 12.3749C23.7387 12.3749 23.194 12.9189 23.194 13.5905C23.194 14.2618 23.7387 14.8065 24.41 14.8065C25.0814 14.8065 25.626 14.2618 25.626 13.5905C25.626 12.9191 25.0814 12.3749 24.41 12.3749ZM19.0009 13.7957C16.1271 13.7957 13.797 16.1257 13.797 18.9996C13.797 21.8735 16.1271 24.2025 19.0009 24.2025C21.8748 24.2025 24.204 21.8735 24.204 18.9996C24.204 16.1257 21.8748 13.7957 19.0009 13.7957ZM19.0009 15.6218C20.8663 15.6218 22.3787 17.134 22.3787 18.9996C22.3787 20.865 20.8663 22.3774 19.0009 22.3774C17.1353 22.3774 15.6231 20.865 15.6231 18.9996C15.6231 17.134 17.1353 15.6218 19.0009 15.6218Z" fill="#252323"/>
</svg>
