<svg width="122" height="122" viewBox="0 0 122 122" fill="none" xmlns="http://www.w3.org/2000/svg">
<path opacity="0.1" d="M61 0C27.3106 0 0 27.3106 0 61C0 94.6894 27.3106 122 61 122C94.6894 122 122 94.6894 122 61C121.961 27.3269 94.6731 0.0392167 61 0Z" fill="white"/>
<path d="M96.2117 41.6823L61.4163 88.9014C60.5864 90.0024 59.349 90.7238 57.9821 90.9035C56.6151 91.0832 55.2333 90.7062 54.1471 89.8571L29.2998 69.9914C27.1072 68.2368 26.7521 65.0369 28.5068 62.8442C30.2614 60.6516 33.4613 60.2966 35.6539 62.0512L56.3736 78.628L88.0275 35.6687C89.0655 34.1112 90.8755 33.25 92.7388 33.4272C94.6022 33.6044 96.2174 34.7912 96.9432 36.5165C97.669 38.2418 97.388 40.2264 96.2117 41.6823Z" fill="white"/>
</svg>
