<svg width="21" height="21" viewBox="0 0 21 21" fill="none" xmlns="http://www.w3.org/2000/svg">
<path opacity="0.1" d="M10.5 0.5C4.97715 0.5 0.5 4.97715 0.5 10.5C0.5 16.0228 4.97715 20.5 10.5 20.5C16.0228 20.5 20.5 16.0228 20.5 10.5C20.4936 4.97982 16.0202 0.506429 10.5 0.5Z" fill="white"/>
<path d="M16.2725 7.33313L10.5684 15.074C10.4323 15.2545 10.2295 15.3727 10.0054 15.4022C9.7813 15.4316 9.55478 15.3698 9.37671 15.2306L5.30338 11.974C4.94393 11.6863 4.88573 11.1617 5.17338 10.8023C5.46102 10.4429 5.9856 10.3846 6.34504 10.6723L9.74171 13.3898L14.9309 6.3473C15.101 6.09195 15.3978 5.95078 15.7032 5.97983C16.0087 6.00887 16.2735 6.20344 16.3925 6.48627C16.5115 6.76911 16.4654 7.09445 16.2725 7.33313Z" fill="white"/>
</svg>
