<svg xmlns="http://www.w3.org/2000/svg" xmlns:xlink="http://www.w3.org/1999/xlink" viewBox="0 0 1793.5 730.03"><defs><style>.cls-1{fill:url(#linear-gradient);}.cls-2{fill:#fff;}</style><linearGradient id="linear-gradient" y1="365.01" x2="1793.5" y2="365.01" gradientUnits="userSpaceOnUse"><stop offset="0" stop-color="#ed1c77"/><stop offset="0.15" stop-color="#de2179"/><stop offset="0.44" stop-color="#b72e7d"/><stop offset="0.83" stop-color="#794384"/><stop offset="0.99" stop-color="#5d4d87"/></linearGradient></defs><title>Asset 2</title><g id="Layer_2" data-name="Layer 2"><g id="Layer_1-2" data-name="Layer 1"><path class="cls-1" d="M1083.24,730a23,23,0,0,1-14.38-5c-.27-.2-.54-.4-.8-.62s-.54-.4-.81-.61l-.79-.61c-.28-.2-.55-.41-.82-.62l-.79-.61-.81-.62-.81-.62c-.27-.2-.54-.4-.8-.61l-.79-.6-.82-.63-.79-.61c-.28-.2-.55-.41-.82-.62l-.8-.61-.8-.62-.79-.6-.82-.63-.79-.6c-.28-.21-.55-.41-.82-.63l-.81-.62-.79-.61c-.27-.19-.54-.4-.8-.6l-.8-.62c-.28-.2-.55-.41-.82-.63s-.53-.4-.8-.61-.54-.4-.8-.62-.54-.4-.81-.61l-.79-.61c-.27-.19-.53-.4-.8-.61l-.82-.62-.81-.62-.79-.61-.79-.61c-.28-.2-.55-.41-.82-.62l-.79-.61c-.28-.2-.55-.41-.82-.62l-.8-.62-.81-.61-.79-.61c-.27-.2-.55-.41-.81-.62s-.54-.4-.8-.61-.55-.41-.82-.63-.53-.4-.8-.61l-.8-.61-.79-.61c-.28-.2-.55-.41-.82-.62l-.79-.61-.81-.62-.81-.62c-.27-.19-.54-.4-.8-.61l-.79-.61c-.28-.2-.55-.41-.82-.62l-.79-.61-.82-.62-.8-.62c-.27-.2-.54-.4-.8-.61l-.79-.61c-.28-.19-.54-.4-.81-.61l-.81-.62c-.28-.2-.54-.41-.81-.62s-.54-.4-.8-.61l-.81-.62-.79-.61c-.23-.17-.47-.35-.69-.53l-.75.06c-1.14.07-2.29.11-3.43.11a48.77,48.77,0,0,1-30-10.25l-.78-.61c-.26-.19-.53-.39-.79-.6l-.8-.61-.82-.63-.81-.62-.78-.6c-.27-.2-.54-.4-.8-.61l-.82-.63c-.27-.19-.53-.39-.79-.6s-.55-.42-.82-.63l-.81-.61-.8-.62-.78-.6-.81-.61-.82-.63-.8-.62-.81-.61-.78-.6-.82-.63-.8-.61-.8-.61-.82-.63-.8-.61-.8-.62-.8-.6-.79-.61-.82-.63-.81-.62-.81-.62-.78-.59-.82-.63-.79-.61-.8-.61c-.28-.2-.55-.42-.83-.63l-.79-.61-.8-.61-.8-.61-.81-.62-.81-.62-.8-.61-.81-.62-.79-.61-.79-.61c-.28-.2-.55-.41-.82-.62l-.81-.62-.8-.62c-.27-.2-.54-.4-.8-.61s-.54-.4-.8-.61l-.79-.6-.82-.63-.81-.62c-.27-.2-.54-.4-.8-.61l-.8-.61-.81-.62-.8-.62-.8-.6-.81-.63-.81-.62c-.27-.2-.54-.4-.8-.61l-.79-.61-.81-.61-.81-.62-.8-.62c-.28-.2-.55-.41-.81-.61l-.79-.61-.81-.62-.8-.61-.81-.62-.81-.62-.8-.61-.79-.6-.81-.63-.8-.6-.81-.63-.81-.61-.81-.63q-.39-.28-.78-.6c-.27-.2-.55-.41-.81-.62l-.8-.6-.81-.62-.81-.63-.81-.61-.78-.6-.81-.62c-.28-.21-.55-.41-.82-.63l-.8-.61-.81-.62q-.39-.28-.78-.6c-.28-.2-.55-.41-.83-.63s-.52-.39-.77-.6-.56-.41-.83-.63l-.81-.61-.79-.61-.79-.61c-.28-.2-.55-.41-.81-.62l-.81-.61-.81-.62-.8-.62-.81-.62c-.27-.2-.54-.4-.8-.61a47,47,0,0,1-13.9-16.8,157.85,157.85,0,0,1-35.63,29.73c-32.52,20-75.09,31.55-130.14,35.27-7.7.52-15.49.78-23.16.78-52.65,0-100.9-12.33-132.39-33.84-.49-.33-1-.68-1.41-1-.28-.2-.55-.41-.82-.63s-.53-.39-.79-.6-.55-.41-.82-.63-.54-.4-.8-.61-.54-.4-.8-.61-.54-.4-.79-.61-.54-.4-.81-.61l-.81-.63c-.28-.2-.54-.4-.81-.61l-.8-.62c-.28-.2-.54-.41-.8-.61l-.79-.61c-.28-.2-.54-.4-.81-.61l-.82-.63-.8-.62c-.27-.19-.54-.4-.8-.61s-.53-.39-.79-.6-.56-.42-.82-.63l-.79-.6-.82-.63c-.27-.2-.54-.4-.8-.61l-.81-.62-.78-.6c-.28-.21-.55-.41-.82-.63s-.54-.4-.8-.61-.54-.4-.81-.62-.54-.4-.81-.62-.53-.4-.79-.61-.54-.39-.8-.6l-.82-.63-.78-.6c-.28-.2-.56-.41-.82-.63s-.54-.4-.8-.61-.55-.41-.81-.62-.53-.4-.79-.6-.55-.41-.82-.63-.53-.4-.79-.6-.55-.41-.81-.62-.55-.41-.81-.62l-.8-.62c-.27-.19-.54-.4-.8-.6l-.79-.61-.82-.63c-.28-.2-.54-.41-.81-.62s-.54-.4-.8-.61l-.81-.62-.78-.6c-.27-.2-.54-.4-.8-.61l-.83-.63-.79-.61c-.28-.2-.55-.41-.81-.62l-.79-.6-.82-.63-.79-.6-.81-.63c-.28-.2-.55-.41-.81-.62s-.54-.4-.8-.61-.54-.4-.79-.61-.55-.41-.82-.62l-.79-.6-.82-.63c-.27-.2-.54-.4-.8-.61s-.54-.41-.81-.62l-.78-.6c-.28-.21-.56-.42-.82-.63l-.79-.6c-.28-.21-.55-.41-.82-.63l-.81-.62-.79-.61c-.27-.2-.54-.4-.8-.61s-.53-.4-.79-.6l-.83-.63-.81-.62-.79-.61c-.28-.2-.55-.41-.81-.62l-.79-.6-.8-.62c-.28-.2-.55-.41-.82-.62l-.8-.62c-.28-.2-.55-.4-.81-.61l-.8-.62c-.27-.19-.53-.4-.79-.6s-.54-.41-.8-.61-.56-.42-.83-.64-.53-.4-.79-.61-.54-.4-.81-.61l-.79-.61c-.28-.2-.55-.41-.81-.62s-.54-.4-.8-.61-.55-.41-.81-.62l-.81-.62c-.27-.2-.54-.4-.8-.61l-.79-.6-.82-.63-.79-.61c-.28-.2-.55-.41-.82-.62l-.8-.61-.8-.62c-.27-.2-.54-.4-.8-.61l-.81-.62a23,23,0,0,1-9.17-15.2l-2.67-1.39q-9.78-5.06-19.52-10.15c-8.13-4.24-16.46-8.59-24.77-12.86a86.81,86.81,0,0,1-23,41.89,85.68,85.68,0,0,1-55.23,25.91L105.72,612.25c-.52,0-1,0-1.55,0a23,23,0,0,1-14.38-5c-.27-.2-.54-.4-.8-.62l-.81-.61q-.39-.28-.78-.6l-.83-.63-.78-.6c-.28-.21-.55-.41-.82-.63s-.54-.4-.8-.61-.54-.41-.81-.62l-.79-.61c-.27-.2-.55-.4-.81-.62s-.54-.4-.8-.6l-.81-.63c-.27-.2-.54-.4-.81-.62s-.54-.4-.8-.61-.53-.4-.79-.6-.55-.41-.82-.63l-.79-.6-.82-.63-.79-.61c-.28-.2-.54-.41-.81-.62s-.53-.4-.8-.61l-.79-.6-.82-.63-.8-.62c-.28-.2-.55-.4-.81-.62s-.54-.4-.8-.61-.53-.39-.79-.6-.54-.41-.81-.62-.55-.41-.82-.62l-.8-.62c-.27-.2-.54-.4-.8-.61l-.79-.61c-.28-.2-.55-.41-.82-.62l-.79-.61-.82-.62-.8-.62c-.27-.2-.54-.4-.8-.61l-.79-.61c-.28-.2-.55-.41-.82-.62l-.79-.61c-.28-.2-.55-.41-.82-.62s-.54-.4-.8-.62l-.81-.61-.78-.6-.82-.63-.79-.61c-.28-.2-.55-.41-.82-.62s-.54-.4-.8-.61-.54-.41-.81-.62l-.79-.6-.81-.63c-.27-.2-.54-.4-.8-.61s-.54-.4-.81-.62-.54-.4-.81-.62-.54-.4-.8-.61l-.79-.61c-.27-.19-.54-.4-.8-.61s-.55-.41-.82-.62l-.81-.62-.8-.61-.8-.62-.79-.6-.8-.62c-.28-.2-.55-.41-.82-.62l-.8-.62c-.28-.2-.55-.4-.81-.62s-.53-.39-.79-.6-.55-.41-.82-.63-.53-.39-.79-.6l-.81-.62c-.28-.2-.54-.41-.81-.62s-.54-.4-.8-.61l-.79-.61c-.28-.2-.55-.41-.82-.62l-.79-.61c-.28-.2-.55-.41-.82-.62l-.8-.62c-.27-.2-.54-.4-.81-.62s-.53-.39-.79-.6l-.81-.62-.79-.6-.82-.63-.81-.62-.79-.61c-.27-.2-.54-.4-.8-.61s-.54-.4-.8-.61-.55-.41-.82-.63-.54-.4-.8-.61-.54-.4-.8-.62-.55-.4-.81-.62-.53-.39-.79-.59l-.8-.62c-.28-.2-.55-.41-.82-.62l-.8-.62c-.28-.2-.54-.41-.81-.62s-.53-.39-.78-.6-.56-.41-.83-.63l-.78-.6c-.28-.2-.55-.41-.82-.63l-.81-.61a24.36,24.36,0,0,1-2.52-2.14A23,23,0,0,1,0,526.1L12.61,261.89A23,23,0,0,1,34,240l246.68-16.68c1.79-.12,3.6-.18,5.38-.18a72.52,72.52,0,0,1,45.46,15.48l1.58,1.21.79.6,2.41,1.85,1.63,1.24.77.59,1.67,1.28.75.58.79.6,3.22,2.47.07,0,.75.58.8.61.79.61,3.24,2.47,1.62,1.25.77.58,1.6,1.23,1.62,1.24c.27.2.54.4.8.61l0,0,.77.59,1.61,1.23L362,262l.83.63.78.6,0,0,.78.6.82.63.78.6s.54.4.8.61l4,3.08.81.62,0,0c14.82-9.14,29.93-18.49,44.71-28.07l-3.73-2.85-.76-.59-.79-.6-5.62-4.3-1.6-1.23-.07-.05-.75-.58-.08-.05-.73-.56-.81-.62-1.66-1.27-.74-.57L395,224.94l-.74-.57-.07-.05-.75-.57-3.27-2.51c-.25-.19-.5-.37-.74-.57l-.07,0c-.26-.19-.51-.38-.75-.58l-4.08-3.11-.74-.57-2.38-1.82-1.62-1.24-1.63-1.25-2.4-1.83-.8-.62-.8-.61-3.27-2.5-.81-.62c-22.38-17.25-34.41-44-33-73.45,1.18-24.86,11.86-48.77,30.06-67.31s41.9-29.66,66.76-31.34c2.15-.15,4.33-.22,6.47-.22,20.25,0,39,6.38,54.35,18.47l1.69,1.29.71.55,4,3.07,6.43,4.91,6.5,5c.25.19.5.38.74.58l4.07,3.11c.25.19.5.37.74.57l.82.62,3.19,2.44,1.63,1.25s.56.42.79.61l.88.66.72.56.06,0,.74.57.08.06.74.57s.56.42.79.61l3.31,2.52.71.55L540.5,87l1.61,1.23.82.63,1.6,1.22,1.6,1.23.09.07c.25.18.49.37.73.56,0,0,3,2.25,3.19,2.44L551,95l.86.66.77.59,1.57,1.2.81.62.87.66.74.57.82.63,4.91,3.76.72.55,1.69,1.29.71.54,2.41,1.85.79.6,3.22,2.47,2.49,1.9.79.6c22.38,17.26,34.42,44,33,73.45A96.59,96.59,0,0,1,607,197.87a149.55,149.55,0,0,1,25.1-3.86c3.7-.25,7.4-.37,11-.37,19.84,0,35.75,3.88,48.16,9.09a23,23,0,0,1,16.11-8.21L837,185.76c.52,0,1-.06,1.55-.06a23,23,0,0,1,8,1.42,22.83,22.83,0,0,1,9.24-2.63L880,182.84l-.08-.06-.74-.57-4.08-3.12-.75-.57-3.21-2.46-2.49-1.91-.74-.56-1.63-1.25c-22.4-17.25-34.44-44-33-73.46,1.19-24.87,11.86-48.77,30.07-67.31S905.25,1.9,930.1.22c2.15-.15,4.33-.22,6.47-.22a86.75,86.75,0,0,1,54.35,18.47l.05,0,.73.56.81.62,1.6,1.22.07.06.74.56,4,3.07.82.63,4.08,3.12.73.56.81.61.8.62,6.5,5,.74.57,4,3.06.87.67.75.57s2.16,1.65,2.38,1.83l5.71,4.37c.25.18.49.37.73.56l4,3.07.07,0,.74.57.06,0,.76.58,2.38,1.82,1.63,1.24,19.29,14.76.06.05.73.56,2.47,1.89.77.59s.56.42.79.61l2.46,1.88.75.57.05,0,.75.57.08.06c.24.19.49.37.72.56l3.21,2.45L1071.3,80a83.77,83.77,0,0,1,22.81,26.88l81.79-5.52c.52,0,1-.06,1.55-.06a23,23,0,0,1,14.38,5c.27.2.54.4.8.62s.53.39.79.6.55.41.82.63.53.39.79.6.55.41.82.63.54.4.8.61.54.4.8.62.53.39.79.6.55.41.82.62l.8.61.81.62.8.62.81.61c.26.2.53.4.78.61s.56.41.83.63.53.39.79.6.55.41.81.63.54.4.8.61l.81.61.79.61c.27.2.54.4.8.61s.55.41.82.63.54.4.8.61l.81.62c.27.2.54.4.8.61l.79.6c.27.21.54.41.81.63s.54.4.81.62l.81.61.8.62c.26.19.53.39.79.6s.55.41.82.63.53.39.79.6.55.41.81.63.54.4.81.61l.8.62c.27.19.53.4.79.6s.55.41.82.63.53.39.79.6.55.41.81.63.55.4.81.61.54.4.8.61l.79.61c.28.2.55.41.82.63s.53.39.79.6.55.41.82.63.54.4.8.61l.81.62q.4.28.78.6c.28.2.55.41.82.63s.53.39.79.6.55.41.82.62l.8.62.81.61.79.61c.27.2.54.4.8.61s.55.41.82.63.54.4.8.62.54.4.81.61.54.4.8.61l.79.61c.27.2.54.4.8.61s.55.41.82.63.54.4.8.61l.81.62.79.6c.27.21.55.41.82.63l.78.6c.28.2.55.41.82.63s.55.41.81.62.54.4.8.61.53.4.79.6.55.41.81.63.54.4.8.6.55.41.81.63.54.4.81.61l.8.62c.27.19.53.39.79.6s.55.41.82.63l.79.6c.28.21.55.41.82.63s.54.4.8.61l.8.62c.27.19.53.39.79.6l.81.62c.27.2.55.41.81.62s.54.4.81.62.54.4.8.61l.81.62c.26.19.53.39.78.6s.55.41.82.62l.8.62c.28.2.54.4.81.61l.8.62.79.61c.28.2.55.41.82.62l.79.61c.28.2.55.41.82.62s.54.4.8.61l.8.62a21,21,0,0,1,1.81,1.46c35.38-14.24,75.17-23.73,111-26.16,8.57-.57,16.86-.87,24.63-.87,43.76,0,76.59,9.14,100.35,27.92l1.55,1.19.8.61,4.84,3.7.8.62.89.68.71.54,3.23,2.47.89.68.73.56,1.66,1.27.73.56.08.06.72.55.82.63s.88.67.88.68l5.41-113.42a23,23,0,0,1,21.42-21.85l131.65-8.9c.52,0,1,0,1.55,0a23,23,0,0,1,14.38,5l.79.61c.28.2.55.41.82.63s.53.4.8.61.54.4.8.61l.79.61c.28.2.55.4.81.62s.55.4.81.62l.81.61.8.62c.28.2.54.4.81.61l.79.61c.27.2.54.4.8.61s.55.41.82.63.54.4.8.61l.8.62c.27.19.54.4.8.6l.81.63c.27.19.53.39.79.6s.55.41.82.63.54.4.8.61.55.41.81.62l.78.6c.28.2.55.41.82.63s.54.4.8.6.54.41.81.63.54.4.8.61.54.4.81.62.53.39.79.6l.81.62c.27.2.54.4.8.61l.81.62c.28.2.54.41.81.62l.8.62c.27.19.53.39.79.6s.54.4.81.62l.81.62c.27.2.54.4.81.62s.53.4.8.61.54.4.8.61l.8.61.79.61c.28.21.56.42.83.64s.53.39.79.6.55.41.81.62l.79.61c.28.2.55.4.81.62s.54.4.8.6.55.41.81.63.54.4.81.62.54.4.8.61.53.4.79.6.55.41.82.63l.79.61c.28.2.55.41.82.62s.54.4.8.61l.8.62c.27.19.53.4.79.6s.55.41.82.63.53.4.79.61.55.4.82.62.54.4.8.61l.81.62q.39.28.78.6l.83.63.78.6c.28.2.55.41.82.63s.54.4.8.61.54.41.81.62.53.39.78.6.55.4.81.62.55.41.82.62.54.4.8.62l.81.61.8.62c.27.19.53.4.79.6s.54.41.81.62l.81.62.81.62.8.61.79.61c.28.2.55.41.81.62s.54.4.79.6.56.42.82.63.54.4.81.61.54.41.81.63l.78.59.82.63.78.6c.28.2.55.41.82.63s.55.4.81.62.54.4.8.61.53.4.79.61.55.4.82.62.53.4.79.6l.82.63.8.62c.27.2.54.4.8.61s.54.4.8.61.54.4.8.61.55.41.81.62a22.46,22.46,0,0,1,2.53,2.15,23,23,0,0,1,6.88,17.52l-16.77,351.93a23,23,0,0,1-21.42,21.85l-75.5,5.11c.2.14.39.29.58.45s.54.4.8.61.54.4.8.61.54.4.8.61l.81.62.79.61c.28.2.55.41.82.62l.8.62c.28.2.54.4.81.61l.78.6c.28.21.55.41.82.63s.54.4.81.62.54.4.8.61.54.41.8.62.54.4.81.61l.79.61a22.48,22.48,0,0,1,2.59,2.2,23.06,23.06,0,0,1,4.3,5.85l.51.39.8.62c.27.2,2.14,1.63,2.4,1.84s.54.41.81.61l.8.62.81.61.81.62.79.61c.27.2.55.41.81.62l.8.61,1.61,1.23.81.62.79.6.82.64.79.6c.28.2.54.41.81.62l.8.61,1.61,1.23.8.62.81.61,2.4,1.84.82.63.8.61.8.61.8.61.8.61.82.63,1.61,1.23,6.41,4.91.82.63.79.6.8.61.81.62.8.62c.28.2.55.41.81.62s.54.4.8.61.54.41.81.62l.81.61.79.61.81.62.79.61c.28.2.55.41.82.62l.79.61.81.61.81.63.8.61,2.42,1.85.79.61c16.44,12.28,25.16,32.74,23.92,56.2-2,39-30.64,69.08-68,71.57-1.5.1-3,.15-4.5.15a59.92,59.92,0,0,1-18.61-2.88,23,23,0,0,1-9.93,3l-10,.66c-.51,0-1,0-1.53,0a23,23,0,0,1-13.68-4.51,22.94,22.94,0,0,1-14.49,6.44l-10,.67c-.51,0-1,.05-1.53.05a22.9,22.9,0,0,1-7-1.09,60.67,60.67,0,0,1-20.32,4.89c-1.69.11-3.35.17-5,.17-12.11,0-22.38-3.27-30.53-9.71l-.77-.59-.8-.61-.8-.62-.8-.6,0,0a23,23,0,0,1-19.64,14l-10.16.68c-.51,0-1,.05-1.53.05a23,23,0,0,1-14.37-5.05c-.28-.2-.55-.4-.81-.62s-.54-.4-.8-.61-.53-.4-.79-.6-.55-.41-.82-.63-.53-.39-.79-.6-.55-.41-.82-.63-.54-.4-.8-.61l-.8-.62c-.27-.19-.54-.4-.8-.6l-.81-.63c-.27-.19-.53-.4-.79-.6l-.83-.63-.79-.61-.81-.62-.79-.6c-.27-.2-.55-.41-.81-.63l-.24-.17a23,23,0,0,1-21,18.34l-10,.67c-.52,0-1,.05-1.54.05a22.92,22.92,0,0,1-9.87-2.23,22.87,22.87,0,0,1-11,3.67l-87.37,5.83c-.51,0-1,0-1.53,0a23,23,0,0,1-14.38-5c-.27-.19-.53-.39-.79-.6s-.55-.41-.82-.63l-.79-.6c-.27-.2-.55-.41-.81-.63s-.54-.4-.8-.61-.54-.4-.81-.61l-.79-.61-.82-.62-.79-.61c-.27-.2-.55-.41-.81-.63s-.54-.4-.8-.61-.55-.4-.81-.62-.53-.39-.79-.6-.55-.41-.83-.63l-.78-.6c-.28-.2-.55-.41-.82-.63s-.54-.4-.8-.61-.54-.4-.8-.61l-.79-.61c-.28-.2-.54-.4-.81-.61s-.55-.41-.82-.63-.54-.4-.8-.61l-.8-.62c-.27-.2-.54-.4-.81-.62s-.53-.39-.79-.6l-.34-.26L1316,701.63a23,23,0,0,1-19.76,14.24l-29.5,2c-.52,0-1,.06-1.54.06a23,23,0,0,1-14.37-5c-.28-.2-.54-.41-.81-.62l-.81-.62-.78-.6c-.28-.2-.56-.41-.83-.63l-.79-.6q-.4-.3-.81-.63c-.27-.19-.53-.4-.79-.6s-.55-.41-.81-.62-.54-.4-.8-.61l-.81-.62c-.27-.2-.54-.4-.8-.61l-.81-.62-.8-.62c-.27-.2-.54-.4-.81-.62s-.53-.39-.79-.6l-.8-.62c-.28-.2-.55-.41-.82-.62s-.54-.4-.8-.61-.54-.4-.8-.61l-.81-.62-.79-.61c-.27-.2-.54-.4-.8-.61s-.56-.42-.82-.63-.54-.4-.8-.61l-.81-.62c-.27-.2-.54-.4-.81-.62s-.53-.39-.79-.6l-.79-.61-.27-.2-.25,4.69a23,23,0,0,1-21.43,21.74l-31,2.07c-.51,0-1,.05-1.53.05a23.25,23.25,0,0,1-5.53-.67,23,23,0,0,1-6.92,1.55L1084.77,730C1084.26,730,1083.75,730,1083.24,730Z"/><path class="cls-2" d="M282.27,246.31,35.59,263,23,527.19l246.69-16.67c30.92-2.1,57.18-28.85,58.65-59.76l7.26-152.27C337.07,267.58,313.19,244.22,282.27,246.31ZM240.8,398.53,194,427.92,147.13,457.3c-14.08,8.84-30.74.11-30-15.71L119.65,389l2.5-52.61c.76-15.82,18.36-26.86,31.69-19.88l44.33,23.22,44.33,23.23C255.82,369.92,254.88,389.69,240.8,398.53Zm245.3,57.36c-3,10.1-8.17,18.86-17.45,24.95-10.36,6.79-21.11,8.6-31.36,4-11.26-5-22-11-33-16.63-17.47-9-34.84-18.22-52.37-27.13-3.07-1.56-4.32-3.33-4.13-7.08q3.12-60.81,5.8-121.6c.16-3.69,1.46-5.72,4.72-7.75,27.73-17.23,55.74-34,82.94-52.17,23.87-15.91,50.5-5,53.13,18.36a5.58,5.58,0,0,0,.45,1.28ZM504,123.79c-1.89,39.73-35.65,74.11-75.4,76.8s-70.43-27.34-68.54-67.07,35.65-74.12,75.4-76.81S505.89,84.06,504,123.79Z"/><path class="cls-2" d="M707.28,241l1.63-23.49,129.61-8.77-9.89,207.59c-5.47,114.77-79.07,154.31-187.25,161.63-55.1,3.72-108.51-6.9-141-29.11l44.88-77.26c24.68,15.62,56.37,23.14,90.56,20.82,29.08-2,60.09-12.19,61.72-46.37l.17-3.57C695,446.18,673,468.5,627.12,471.61c-60.72,4.1-121.78-27.36-117.67-113.56C513.6,270.83,571.92,221.13,633.66,217,672.44,214.34,695.18,228.05,707.28,241Zm-2.09,107.93c1.36-28.57-12.8-40.83-30.66-39.62-20.92,1.42-34.48,19.11-35.67,44.1-1.22,25.5,12.85,39.8,31.73,38.53C686.92,390.79,703.88,376.43,705.19,348.89Z"/><polygon class="cls-2" points="844.67 471.64 857.26 207.44 988.91 198.54 976.32 462.74 844.67 471.64"/><path class="cls-2" d="M1170,280.86,1167.27,338c-.56,11.74,6.51,12.78,16.72,12.09a141,141,0,0,0,26.17-4.82l.87,99.08a362.84,362.84,0,0,1-78.51,14.46c-67.35,4.56-100.91-17.07-97.36-91.54l3.69-77.53-35.72,2.42,4.52-94.87,35.72-2.42,2.94-61.71,131.14-8.87L1174.51,186l52.56-3.56-4.52,94.87Z"/><path class="cls-2" d="M1397.67,434.26l-1.51-21.76c-19.92,23.21-51.37,31.94-81,33.94-50.52,3.42-93.5-23.17-90.75-80.8,2.84-59.68,67.93-80.85,123.72-88.19l55.28-7.29.15-3.06c.48-10.2-13.93-17.36-43.52-15.36s-63.69,12.95-87.72,26.26l-22-72.23c32.39-18,84.63-36.22,136.17-39.71,90.83-6.14,147,21.08,142.34,119l-6.71,140.77Zm-20.75-108.92c-12.27,1.33-25.81,7.84-26.54,23.14-.7,14.79,10.77,19.61,23.52,18.75s23.82-8.73,26.49-11.45l1.58-33.16Z"/><path class="cls-2" d="M1540.91,424.57l16.77-351.93,131.65-8.9-16.77,351.93Z"/><ellipse class="cls-2" cx="928.22" cy="95.11" rx="76.1" ry="67.81" transform="translate(206.49 686.5) rotate(-45.18)"/><ellipse class="cls-2" cx="936.26" cy="572.94" rx="30.02" ry="26.78" transform="translate(-130.11 833.15) rotate(-45.18)"/><path class="cls-2" d="M1078.71,639.81l-76.64,5.11,7-133.7,30.84-2.06-5.68,107.74,45.79-3.06Z"/><path class="cls-2" d="M1123.73,636.81l-31,2.07,7-133.71,31-2.07Z"/><path class="cls-2" d="M1269.68,493.84l-56.1,137-29.5,2-42-130.43,33-2.2,26.19,90,35.7-94.1Z"/><path class="cls-2" d="M1361.3,621l-87.37,5.83,7-133.71,85.64-5.71-1.31,25-54.8,3.65-1.44,27.32,51.73-3.45-1.32,25-51.73,3.45-1.63,31,56.52-3.77Z"/><path class="cls-2" d="M1453.84,614.79l-10.16.67,2.81-53.28c.77-14.54-.94-29.29-20.1-28s-29.24,18.75-30.36,40.06l-2.35,44.57-10,.66,7-133.7,10-.66-3.18,60.45c5-10.95,16.86-19.27,29.7-20.13,25.48-1.7,30.55,14.38,29.43,35.69Z"/><path class="cls-2" d="M1551,608.31l-10,.66.77-14.53a36.23,36.23,0,0,1-29.61,18.39c-12.46.83-19.14-2.78-23.42-8.48s-5.88-15.25-5.21-27.85l2.81-53.48,10-.66-2.9,55c-.72,13.56,1,27.93,20.55,26.63,19.73-1.32,28.32-19.27,29.24-36.71l2.54-48.25,10-.66Z"/><path class="cls-2" d="M1623.67,605.39c-13.41.89-25.36-4.1-32.14-16.78l-.9,17-10,.67,7-133.71,10-.66-3.22,61c9.34-14.14,21.68-20.18,34.52-21,26.44-1.77,42.64,16.85,41.23,43.59C1668.81,582.1,1650.5,603.6,1623.67,605.39Zm4.47-84.68c-21.65,1.44-34.42,19.1-35.52,40-1.1,20.74,9.88,37,31.53,35.55,21.46-1.43,34.43-19.29,35.52-40C1660.78,535.33,1649.6,519.28,1628.14,520.71Z"/></g></g></svg>