<svg width="229" height="110" viewBox="0 0 229 110" fill="none" xmlns="http://www.w3.org/2000/svg">
<g clip-path="url(#clip0_62_111)">
<path d="M45.4472 108.481L110.706 104.139L211.057 97.4613L218.647 96.9604C219.351 96.9128 220.011 96.5978 220.49 96.0803C220.969 95.5627 221.231 94.8819 221.222 94.1777L220.978 70.7497C220.975 70.3802 220.896 70.0152 220.747 69.677C220.597 69.3388 220.38 69.0344 220.11 68.7822C220.022 68.703 219.93 68.6294 219.833 68.5618L219.742 68.4942C219.71 68.4691 219.678 68.4457 219.644 68.4241C219.615 68.4015 219.581 68.379 219.55 68.3565C219.518 68.3339 219.487 68.3076 219.455 68.2851L219.361 68.2174L219.266 68.1473L219.172 68.0797C219.14 68.0534 219.109 68.0308 219.078 68.0083L218.983 67.9407L218.888 67.8705L218.791 67.8029C218.762 67.7768 218.731 67.7533 218.697 67.7328C218.668 67.709 218.637 67.6864 218.605 67.6639C218.574 67.6413 218.541 67.6163 218.508 67.5938C218.474 67.5712 218.445 67.5487 218.413 67.5236L218.318 67.456L218.224 67.3871C218.195 67.3621 218.161 67.3395 218.13 67.317C218.098 67.2944 218.067 67.2694 218.035 67.2469L217.94 67.1792L217.846 67.1104C217.814 67.0853 217.783 67.0628 217.752 67.0402C217.72 67.0177 217.689 66.9926 217.658 66.9701L217.56 66.9025C217.53 66.8777 217.5 66.8547 217.468 66.8336C217.437 66.8085 217.405 66.786 217.371 66.7634C217.337 66.7409 217.307 66.7159 217.276 66.6933L217.182 66.6257C217.15 66.6006 217.119 66.5806 217.088 66.5581C217.058 66.5325 217.026 66.5087 216.993 66.4867L216.898 66.4165L216.804 66.3489C216.774 66.3243 216.742 66.3017 216.71 66.2813C216.678 66.255 216.647 66.2324 216.615 66.2099L216.52 66.1398L216.423 66.0721C216.394 66.0474 216.364 66.0248 216.332 66.0045C216.301 65.9786 216.268 65.9548 216.234 65.9331C216.205 65.9081 216.171 65.8855 216.14 65.863L216.045 65.7954C216.014 65.7703 215.983 65.7478 215.951 65.7252C215.92 65.7027 215.887 65.6802 215.856 65.6564C215.824 65.6326 215.793 65.6088 215.762 65.5862L215.668 65.5186C215.636 65.4935 215.605 65.471 215.572 65.4485L215.478 65.3796C215.447 65.3545 215.415 65.332 215.384 65.3095L215.287 65.2418C215.258 65.2168 215.226 65.1942 215.194 65.1717L215.098 65.1041C215.068 65.0785 215.036 65.0547 215.003 65.0327C214.972 65.0076 214.939 64.9851 214.908 64.9625C214.877 64.94 214.845 64.9175 214.814 64.8949L214.72 64.8235L214.625 64.7559L214.53 64.6883C214.499 64.6632 214.467 64.6407 214.436 64.6181C214.404 64.5956 214.373 64.5706 214.339 64.548C214.305 64.5255 214.279 64.5017 214.248 64.4791C214.216 64.4566 214.183 64.4341 214.152 64.409L214.058 64.3414C214.027 64.3163 213.993 64.2938 213.961 64.2712C213.93 64.2487 213.897 64.2262 213.87 64.2024C213.842 64.1786 213.806 64.1548 213.772 64.1322C213.738 64.1097 213.711 64.0872 213.678 64.0646C213.644 64.0421 213.615 64.017 213.583 63.9945L213.488 63.9268C213.457 63.9005 213.425 63.878 213.394 63.8555L213.3 63.7878C213.268 63.7628 213.236 63.7393 213.202 63.7177L213.11 63.6501C213.079 63.6238 213.047 63.6012 213.016 63.5787L212.922 63.5111C212.89 63.486 212.858 63.4635 212.824 63.4409L212.732 63.3733C212.701 63.3477 212.669 63.3239 212.635 63.3019L212.544 63.2343C212.512 63.2092 212.477 63.1867 212.446 63.1642L212.352 63.0965C212.32 63.0702 212.289 63.0477 212.258 63.0251L212.162 62.9575C212.131 62.9325 212.099 62.9099 212.065 62.8874C212.032 62.8648 212.005 62.8423 211.974 62.8198L211.88 62.7484L211.784 62.6807C211.753 62.6557 211.721 62.6332 211.687 62.6106C211.654 62.5881 211.627 62.5655 211.596 62.543C211.565 62.5175 211.532 62.4941 211.498 62.4729L211.478 62.4541L223.531 61.6438C224.207 61.5955 224.841 61.3019 225.315 60.8184C225.788 60.3349 226.067 59.6951 226.1 59.0201L228.204 14.9432C228.223 14.5602 228.161 14.1775 228.022 13.8201C227.882 13.4627 227.669 13.1387 227.395 12.8693C227.302 12.7781 227.202 12.6943 227.095 12.6188C227.064 12.5938 227.033 12.5737 227.001 12.5487L226.907 12.481C226.876 12.456 226.844 12.436 226.813 12.4134C226.782 12.3909 226.749 12.3646 226.717 12.342C226.686 12.3195 226.655 12.297 226.623 12.2719L226.529 12.2043C226.498 12.1792 226.466 12.1592 226.435 12.1366C226.404 12.1141 226.371 12.0878 226.34 12.0653C226.308 12.0427 226.274 12.0177 226.243 11.9951C226.212 11.9726 226.18 11.95 226.147 11.9275C226.118 11.9033 226.088 11.8807 226.056 11.8599C226.024 11.8336 225.991 11.8123 225.959 11.7885C225.928 11.7647 225.896 11.7409 225.865 11.7184L225.77 11.6507C225.741 11.6257 225.707 11.6056 225.675 11.5831C225.644 11.5606 225.613 11.5355 225.581 11.5117C225.55 11.4879 225.518 11.4641 225.487 11.4416C225.456 11.419 225.423 11.3965 225.392 11.374C225.36 11.3514 225.329 11.3289 225.297 11.3063C225.266 11.2838 225.235 11.2587 225.203 11.2362C225.172 11.2137 225.137 11.1874 225.105 11.1648C225.074 11.1423 225.043 11.1197 225.011 11.0972C224.98 11.0746 224.951 11.0521 224.92 11.0271C224.888 11.002 224.854 10.982 224.822 10.9557L224.727 10.888C224.699 10.8655 224.665 10.843 224.633 10.8204C224.602 10.7979 224.571 10.7753 224.539 10.7503C224.508 10.7252 224.476 10.7052 224.441 10.6802C224.406 10.6551 224.381 10.6338 224.35 10.6113L224.255 10.5436C224.224 10.5186 224.193 10.4961 224.161 10.4735C224.13 10.451 224.095 10.4284 224.063 10.4034C224.032 10.3783 224.003 10.357 223.972 10.3345L223.875 10.2669C223.846 10.2418 223.815 10.2193 223.783 10.1967C223.752 10.1742 223.717 10.1517 223.685 10.1266L223.591 10.059C223.562 10.0352 223.528 10.0126 223.497 9.9901C223.467 9.96503 223.435 9.94162 223.402 9.91997C223.37 9.89492 223.339 9.87238 223.305 9.84984L223.213 9.78221C223.182 9.75591 223.151 9.73587 223.119 9.71333C223.088 9.69079 223.055 9.66574 223.024 9.6432C222.992 9.62065 222.958 9.59561 222.927 9.57306L222.835 9.50544C222.804 9.47914 222.773 9.4591 222.737 9.43405L222.646 9.36642C222.614 9.34138 222.581 9.31883 222.549 9.29629L222.455 9.22866C222.426 9.20236 222.392 9.18358 222.36 9.15728C222.327 9.13098 222.297 9.11219 222.265 9.08965C222.234 9.06711 222.203 9.04206 222.169 9.01952C222.135 8.99698 222.108 8.97443 222.077 8.95189C222.046 8.92935 222.013 8.90681 221.982 8.88051L221.887 8.81288C221.856 8.78783 221.822 8.76529 221.791 8.74275C221.759 8.7202 221.73 8.69766 221.699 8.67512C221.668 8.65258 221.635 8.63003 221.604 8.60373L221.51 8.53611C221.478 8.51106 221.444 8.48852 221.413 8.46597C221.381 8.44343 221.349 8.42089 221.317 8.39835C221.286 8.3758 221.255 8.35076 221.223 8.32821C221.192 8.30567 221.16 8.28188 221.129 8.25933C221.098 8.23679 221.066 8.21175 221.034 8.1892C221.001 8.16666 220.971 8.14412 220.94 8.12158C220.908 8.09903 220.877 8.07399 220.845 8.05144L220.751 7.98256C220.72 7.95752 220.685 7.93497 220.653 7.91243C220.622 7.88989 220.593 7.86735 220.562 7.8448C220.53 7.82226 220.499 7.79721 220.467 7.77467C220.436 7.75213 220.405 7.72959 220.373 7.70579C220.342 7.682 220.307 7.6582 220.275 7.63566C220.244 7.61312 220.213 7.59057 220.184 7.56803C220.155 7.54549 220.118 7.52044 220.087 7.4979C220.056 7.47536 220.024 7.45281 219.992 7.42651L219.897 7.35889C219.866 7.33384 219.835 7.3138 219.803 7.29126C219.772 7.26872 219.74 7.24367 219.709 7.22113L219.614 7.14974L219.52 7.08211C219.488 7.05707 219.457 7.03703 219.425 7.01449C219.394 6.99194 219.363 6.9669 219.331 6.94435C219.3 6.92181 219.265 6.89676 219.233 6.87422C219.202 6.85168 219.17 6.82914 219.139 6.80534C219.108 6.78155 219.079 6.76026 219.047 6.73771C219.016 6.71517 218.981 6.69012 218.949 6.66758C218.918 6.64504 218.887 6.61999 218.855 6.59745L218.761 6.52982C218.731 6.50506 218.7 6.48206 218.667 6.46094L218.572 6.39081C218.54 6.36576 218.509 6.34322 218.477 6.32068C218.446 6.29814 218.415 6.27559 218.383 6.25305C218.352 6.23051 218.32 6.20671 218.288 6.18167L218.194 6.11404C218.162 6.08899 218.128 6.06645 218.097 6.04391C218.067 6.01955 218.036 5.99697 218.003 5.97628C217.974 5.94998 217.943 5.92994 217.91 5.90489L217.813 5.83727C217.784 5.81222 217.75 5.78968 217.719 5.76713C217.688 5.74459 217.656 5.72205 217.624 5.69951C217.093 5.27244 216.42 5.06128 215.74 5.10839L199.21 6.22299C198.533 6.26978 197.896 6.56381 197.422 7.04893C196.949 7.53405 196.67 8.17628 196.641 8.85295L195.956 23.2113C195.941 23.2038 195.929 23.1938 195.915 23.1862C195.902 23.1787 195.853 23.1374 195.818 23.1124L195.73 23.0497C195.698 23.0247 195.666 23.0021 195.634 22.9796L195.535 22.907L195.443 22.8381L195.352 22.7705C195.319 22.7479 195.285 22.7254 195.254 22.7003C195.222 22.6753 195.189 22.6527 195.153 22.6302C195.118 22.6077 195.093 22.5851 195.065 22.5613L194.97 22.4937C194.939 22.4711 194.907 22.4486 194.876 22.4236C194.844 22.3985 194.811 22.376 194.775 22.3534L194.684 22.2858C194.655 22.262 194.624 22.2395 194.592 22.2169C194.561 22.1944 194.529 22.1718 194.498 22.1468C194.467 22.1217 194.429 22.0992 194.398 22.0741C194.366 22.0491 194.337 22.0316 194.306 22.009L194.214 21.9401C194.183 21.9176 194.149 21.8951 194.118 21.87L194.017 21.7974L193.93 21.7348L193.834 21.6646C193.802 21.6383 193.771 21.6158 193.74 21.5932L193.639 21.5231C193.61 21.5006 193.581 21.478 193.55 21.458C193.519 21.4379 193.487 21.4104 193.453 21.3853L193.358 21.3165C193.327 21.2914 193.295 21.2689 193.261 21.2463C193.227 21.2238 193.201 21.2012 193.172 21.1812C193.143 21.1612 193.107 21.1336 193.075 21.1086L192.98 21.0397C189.537 18.4949 184.539 17.4742 177.77 17.9238H177.722C172.574 18.272 167.594 19.6684 163.683 21.2538C163.546 20.9551 163.357 20.6832 163.123 20.4511C163.028 20.3609 162.927 20.2772 162.821 20.2006L162.729 20.133C162.698 20.1079 162.666 20.0879 162.635 20.0654C162.604 20.0403 162.571 20.0169 162.537 19.9952C162.507 19.9697 162.476 19.9458 162.443 19.9238C162.414 19.8988 162.38 19.8788 162.349 19.8562C162.317 19.8337 162.286 19.8111 162.255 19.7886C162.223 19.766 162.191 19.741 162.159 19.7185C162.128 19.6959 162.096 19.6696 162.065 19.6471C162.034 19.6245 162.002 19.602 161.971 19.5794C161.939 19.5569 161.908 19.5344 161.877 19.5093L161.781 19.4417C161.75 19.4161 161.718 19.3923 161.685 19.3703C161.656 19.3452 161.624 19.3252 161.593 19.3027C161.562 19.2801 161.53 19.2576 161.497 19.2325L161.401 19.1649C161.372 19.1386 161.338 19.1173 161.307 19.0935C161.275 19.0697 161.244 19.0484 161.212 19.0259C161.181 19.0034 161.148 18.9783 161.117 18.9558C161.086 18.9332 161.054 18.9107 161.023 18.8881C160.992 18.8656 160.96 18.8405 160.929 18.818C160.897 18.7955 160.866 18.7717 160.835 18.7491L160.739 18.679L160.645 18.6114C160.614 18.5863 160.582 18.5638 160.548 18.5412C160.519 18.5165 160.488 18.4935 160.455 18.4724C160.424 18.4473 160.393 18.4248 160.361 18.4022C160.33 18.3797 160.296 18.3546 160.265 18.3321L160.173 18.2645C160.14 18.2382 160.106 18.2194 160.075 18.1968C160.045 18.1713 160.014 18.1474 159.981 18.1254C159.952 18.1004 159.918 18.0779 159.887 18.0553L159.791 17.9877C159.762 17.9614 159.728 17.9426 159.697 17.9163L159.603 17.8487C159.572 17.8236 159.539 17.8002 159.505 17.7785L159.413 17.7109C159.382 17.6846 159.351 17.6658 159.319 17.6395L159.225 17.5719C159.194 17.5469 159.158 17.5243 159.127 17.5018C159.096 17.4792 159.064 17.4567 159.035 17.4341C159.007 17.4116 158.97 17.3891 158.939 17.364C158.907 17.339 158.876 17.3177 158.847 17.2951C158.818 17.2726 158.781 17.2475 158.749 17.225C158.718 17.2025 158.686 17.1799 158.655 17.1574C158.624 17.1348 158.592 17.1123 158.561 17.0872L158.467 17.0184C158.434 16.9933 158.403 16.9708 158.369 16.9482C158.335 16.9257 158.308 16.9031 158.277 16.8806C158.246 16.8581 158.214 16.833 158.183 16.8105L158.089 16.7416C158.056 16.7165 158.022 16.694 157.991 16.6715C157.959 16.6489 157.928 16.6264 157.899 16.6038C157.868 16.5787 157.835 16.5553 157.801 16.5337C157.774 16.5112 157.738 16.4886 157.71 16.4648C157.681 16.441 157.644 16.4172 157.613 16.3947C157.581 16.3721 157.55 16.3496 157.519 16.3271C157.488 16.302 157.456 16.2786 157.423 16.2569C157.392 16.2319 157.361 16.2118 157.329 16.1893C157.298 16.1637 157.266 16.1399 157.232 16.1179C157.204 16.0929 157.172 16.0728 157.141 16.0503C157.109 16.0277 157.077 16.0027 157.045 15.9801C157.014 15.9576 156.983 15.9351 156.951 15.9125C156.92 15.89 156.886 15.8637 156.855 15.8411C156.823 15.8186 156.792 15.7961 156.763 15.7735C156.734 15.751 156.699 15.7259 156.665 15.7034C156.631 15.6808 156.605 15.6583 156.573 15.6357C156.542 15.6132 156.508 15.5882 156.477 15.5619L156.381 15.4967C156.352 15.4717 156.318 15.4491 156.287 15.4266C156.256 15.4041 156.224 15.3815 156.193 15.359C156.161 15.3364 156.13 15.3114 156.095 15.2851C156.06 15.2588 156.035 15.2425 156.003 15.22C155.972 15.1974 155.941 15.1724 155.909 15.1498C155.878 15.1273 155.846 15.1047 155.815 15.0822C155.784 15.0597 155.748 15.0346 155.717 15.0083C155.686 14.982 155.657 14.9657 155.625 14.9432C155.594 14.9207 155.563 14.8956 155.529 14.8731C155.495 14.8505 155.466 14.8255 155.435 14.8029C155.403 14.7804 155.37 14.7578 155.339 14.7353C155.308 14.7128 155.276 14.6902 155.245 14.6639C155.214 14.6376 155.182 14.6188 155.151 14.5963C155.119 14.5737 155.088 14.5487 155.055 14.5262C155.023 14.5036 154.993 14.4811 154.961 14.4585C154.93 14.436 154.898 14.4134 154.867 14.3871L154.773 14.3195C154.741 14.2945 154.709 14.2719 154.675 14.2494C154.641 14.2268 154.615 14.2043 154.583 14.1818C154.552 14.1592 154.521 14.1367 154.489 14.1104L154.392 14.0427C154.362 14.0177 154.328 13.9952 154.297 13.9726C154.266 13.9501 154.234 13.9275 154.203 13.905C154.173 13.8798 154.141 13.8564 154.109 13.8349C154.08 13.8111 154.046 13.7885 154.013 13.766C153.981 13.7434 153.95 13.7184 153.919 13.6958C153.888 13.6733 153.856 13.6508 153.825 13.6282C153.794 13.6057 153.762 13.5806 153.731 13.5581C153.699 13.5355 153.667 13.5117 153.635 13.4892C153.604 13.4667 153.573 13.4416 153.539 13.4191C153.505 13.3965 153.478 13.374 153.447 13.3514C153.416 13.3289 153.384 13.3039 153.353 13.2813C152.822 12.8552 152.149 12.645 151.47 12.6927L140.848 13.4003C140.089 11.5916 138.833 10.0338 137.224 8.90681L137.13 8.83667L137.036 8.76905C137.003 8.74275 136.972 8.7202 136.938 8.69516C136.904 8.67011 136.878 8.65007 136.846 8.63003L136.752 8.5599L136.658 8.49227C136.625 8.46597 136.591 8.44093 136.558 8.41839C136.524 8.39584 136.497 8.3733 136.468 8.35326C136.44 8.33322 136.406 8.30567 136.37 8.28313C136.335 8.26059 136.311 8.23804 136.279 8.2155C136.246 8.19296 136.214 8.16416 136.18 8.14161C136.146 8.11907 136.119 8.09653 136.088 8.07649C136.057 8.05645 136.024 8.0289 135.993 8.00636L135.901 7.93873C135.867 7.91368 135.836 7.88738 135.802 7.86484L135.71 7.79721L135.615 7.72959L135.52 7.66196C135.488 7.63605 135.455 7.6118 135.42 7.58932L135.332 7.52044C135.297 7.4979 135.268 7.47536 135.234 7.45281C135.2 7.43027 135.174 7.40522 135.143 7.38519C135.111 7.36515 135.077 7.33509 135.042 7.31255L134.95 7.24367L134.856 7.17604C134.825 7.1535 134.796 7.12845 134.765 7.10841C134.733 7.08838 134.699 7.05832 134.664 7.03578L134.573 6.9669L134.478 6.89927C134.447 6.87673 134.416 6.85168 134.384 6.83164C134.353 6.8116 134.318 6.78155 134.284 6.75901C134.25 6.73646 134.224 6.71392 134.195 6.69012L134.098 6.6225C134.067 6.59996 134.038 6.57491 134.006 6.55487C133.975 6.53483 133.94 6.50478 133.906 6.48223L133.814 6.41461L133.72 6.34322C133.689 6.32318 133.66 6.29814 133.628 6.27559C133.597 6.25305 133.562 6.228 133.528 6.20546L133.436 6.13783L133.342 6.06645C133.307 6.04391 133.278 6.02136 133.244 5.99882C133.21 5.97628 133.184 5.95123 133.153 5.92869L133.058 5.86106C133.027 5.83852 132.996 5.81222 132.964 5.79218C132.933 5.77214 132.898 5.74459 132.866 5.71954L132.772 5.65192L132.678 5.58429L132.583 5.5129C132.551 5.49036 132.52 5.46531 132.486 5.44277L132.394 5.37514L132.3 5.30752L132.205 5.23613C132.173 5.21359 132.142 5.18854 132.108 5.166L132.014 5.09837L131.922 5.03074C131.889 5.0082 131.858 4.98315 131.827 4.95936C131.795 4.93556 131.761 4.91177 131.73 4.88923L131.636 4.8216L131.543 4.75397C131.509 4.73143 131.48 4.70638 131.446 4.68384C131.412 4.6613 131.384 4.635 131.348 4.61246C131.313 4.58991 131.289 4.56737 131.257 4.54483L131.163 4.4772L131.068 4.40707C131.037 4.38453 131.006 4.35823 130.97 4.33568L130.876 4.26806L130.785 4.20043L130.69 4.1303C130.657 4.10775 130.624 4.08271 130.593 4.05891L130.498 3.99128L130.407 3.92366C130.373 3.90111 130.344 3.87607 130.31 3.85352C130.276 3.83098 130.246 3.80593 130.212 3.78339L130.12 3.71451L130.026 3.64688L129.932 3.57675C129.901 3.55421 129.868 3.52916 129.834 3.50662L129.74 3.43899C129.711 3.4152 129.68 3.39265 129.648 3.37011L129.554 3.29998C129.519 3.27744 129.488 3.25239 129.456 3.22985L129.362 3.16222C129.331 3.13843 129.302 3.11338 129.27 3.09334C129.239 3.0733 129.208 3.04575 129.173 3.02321C129.137 3.00067 129.11 2.97562 129.076 2.95308C129.047 2.92874 129.016 2.90616 128.984 2.88545C128.953 2.86165 128.921 2.83661 128.89 2.81657L128.795 2.74644C128.763 2.72389 128.732 2.69885 128.698 2.6763C128.664 2.65376 128.635 2.62871 128.604 2.60868C128.572 2.58864 128.544 2.55983 128.511 2.53729C128.478 2.51475 128.446 2.4897 128.414 2.46716C128.383 2.44462 128.354 2.42207 128.323 2.40204C128.291 2.382 128.26 2.35445 128.226 2.3319C128.192 2.30936 128.164 2.28306 128.13 2.26052L128.036 2.19039L127.945 2.12526L127.847 2.05263C127.815 2.03259 127.784 2.00629 127.755 1.98625C125.741 0.542278 123.264 -0.149026 120.614 0.027557C114.279 0.454613 108.881 5.94497 108.579 12.2732C108.429 15.4567 109.54 18.3822 111.709 20.5187C112.121 20.9229 112.565 21.2923 113.038 21.6233L113.129 21.6922L113.223 21.7598C113.257 21.7848 113.29 21.8074 113.321 21.8324L113.416 21.9001L113.507 21.9689C113.541 21.9915 113.573 22.014 113.604 22.0391C113.635 22.0641 113.668 22.0867 113.702 22.1092L113.793 22.1768L113.888 22.2457C113.919 22.2683 113.95 22.2933 113.983 22.3159L114.08 22.386L114.174 22.4536L114.266 22.5225L114.361 22.5926C114.395 22.6152 114.426 22.6402 114.458 22.6628L114.552 22.7304L114.643 22.7993C114.679 22.8206 114.708 22.8469 114.741 22.8694L111.27 23.1023C110.861 23.1309 110.465 23.2503 110.108 23.4517C109.731 23.2997 109.324 23.235 108.918 23.2626L92.6453 24.3585C92.2558 24.3849 91.8764 24.4935 91.5322 24.6773C91.1881 24.861 90.887 25.1156 90.649 25.4242C88.7933 24.629 86.3437 24.0867 83.1961 24.2971C81.7524 24.3982 80.3257 24.6697 78.9461 25.1061C79.188 24.2436 79.3329 23.3569 79.378 22.4624C79.5287 19.2801 78.4175 16.3508 76.248 14.2168C75.8365 13.8127 75.3922 13.4432 74.9196 13.1122L74.828 13.0434C74.7941 13.0183 74.7627 12.9958 74.7313 12.9707L74.6359 12.9031L74.5417 12.8355L74.4475 12.7678C74.4162 12.7415 74.3848 12.719 74.3496 12.694L74.258 12.6263L74.1638 12.5587L74.0696 12.4911C74.0382 12.4648 74.0031 12.4435 73.9717 12.4172L73.8775 12.3496C73.8461 12.327 73.8173 12.3045 73.7834 12.2819L73.6892 12.2118C73.6566 12.1892 73.6252 12.1667 73.5963 12.1429C73.5674 12.1191 73.531 12.0953 73.4996 12.0728L73.4054 12.0052C73.3741 11.9826 73.3427 11.9576 73.3075 11.935L73.2159 11.8661C73.1845 11.8436 73.1531 11.8185 73.1192 11.796L73.0275 11.7284C72.9961 11.7058 72.961 11.6808 72.9296 11.6557C72.8982 11.6307 72.8668 11.6107 72.8354 11.5906C72.8041 11.5706 72.7752 11.5418 72.7438 11.5192L72.6496 11.4516C72.6145 11.4291 72.5831 11.404 72.5492 11.379C72.5153 11.3539 72.4889 11.3339 72.4575 11.3138L72.3634 11.2425C72.332 11.2199 72.3031 11.1974 72.2679 11.1748C72.2328 11.1523 72.2052 11.1272 72.1713 11.1022C72.1374 11.0772 72.111 11.0571 72.0796 11.0371C72.0482 11.017 72.0168 10.9882 71.9854 10.9657L71.8988 10.8956C71.8674 10.8705 71.8335 10.848 71.8021 10.8229C71.7707 10.7979 71.7394 10.7778 71.708 10.7578C71.6766 10.7378 71.6477 10.709 71.6163 10.6864L71.5209 10.6188L71.4217 10.5461L71.33 10.4785L71.2346 10.4109C71.2032 10.3871 71.1744 10.3646 71.1405 10.342C71.1066 10.3195 71.0777 10.2919 71.0438 10.2694L70.9509 10.2017L70.8567 10.1341L70.7626 10.0652C70.7312 10.0402 70.6973 10.0151 70.6646 9.99261L70.573 9.92498C70.5391 9.90243 70.5102 9.87989 70.4788 9.85735L70.3846 9.78847C70.3507 9.76342 70.3181 9.73838 70.2842 9.71583L70.1925 9.6482L70.0984 9.58058C70.0683 9.55622 70.0369 9.53364 70.0042 9.51295C69.9729 9.48654 69.9403 9.46187 69.9063 9.43906L69.8146 9.37143L69.7205 9.30381C69.6891 9.28126 69.6577 9.25496 69.6263 9.23618C69.5949 9.21739 69.5597 9.18483 69.5284 9.16229L69.4367 9.09466L69.3425 9.02703C69.3112 9.00449 69.2798 8.97819 69.2484 8.95565C69.217 8.93311 69.1818 8.90806 69.1479 8.88552L69.0563 8.81789L68.9621 8.75026C68.9307 8.72772 68.9018 8.70267 68.8705 8.68263C68.8391 8.6626 68.8039 8.63129 68.77 8.60874L68.6784 8.54112L68.5842 8.47349C68.5516 8.44844 68.5202 8.4259 68.4863 8.40336C68.4524 8.38081 68.426 8.35452 68.3946 8.33448C68.3632 8.31444 68.3318 8.28689 68.3005 8.26434L68.2063 8.19672C68.1711 8.17167 68.1397 8.14913 68.1084 8.12408C68.077 8.09903 68.0456 8.07774 68.0142 8.0552L67.92 7.98757C67.8874 7.96503 67.8598 7.94249 67.8284 7.91995L67.7279 7.84731L67.6363 7.77843L67.5421 7.7108L67.4467 7.64317C67.4153 7.61813 67.3839 7.59558 67.35 7.57054C67.3161 7.54549 67.2897 7.52545 67.2546 7.50291C67.2253 7.47836 67.1947 7.45537 67.1629 7.43403L67.0688 7.3664C67.0349 7.34135 67.0035 7.31881 66.9721 7.29376L66.8767 7.22614C66.8453 7.20359 66.8164 7.1798 66.7825 7.15726C66.7486 7.13471 66.7222 7.10967 66.6909 7.08963L66.5942 7.01699L66.4988 6.94936L66.4046 6.88174L66.3104 6.81035C66.279 6.78781 66.2477 6.76276 66.2125 6.74022L66.1234 6.6751L66.0292 6.60747L65.935 6.53608L65.8371 6.46595L65.7429 6.39832L65.6513 6.3307C65.6174 6.30815 65.5885 6.28185 65.5571 6.25931C65.5257 6.23677 65.4906 6.21172 65.4592 6.18918C63.4503 4.7427 60.9681 4.0514 58.3227 4.22673C51.9823 4.65378 46.581 10.1441 46.2859 16.4698C46.1352 19.6521 47.2464 22.5814 49.416 24.7141C49.8267 25.1184 50.2702 25.4883 50.7418 25.82C50.7757 25.8425 50.8071 25.8675 50.841 25.8901C50.8749 25.9126 50.9012 25.9364 50.9339 25.959L51.0281 26.0266C51.0594 26.0491 51.0883 26.0742 51.1222 26.0967C51.1561 26.1193 51.185 26.1443 51.2202 26.1669C51.2553 26.1894 51.2792 26.2132 51.3118 26.2357L51.406 26.3059L51.5001 26.3735L51.5981 26.4436L51.6922 26.5113C51.7236 26.5338 51.7525 26.5601 51.7839 26.5826L51.8781 26.6503L51.9785 26.7204L52.0702 26.788L52.1643 26.8594L52.2585 26.927L52.3539 26.9972L52.4481 27.0648C52.4795 27.0874 52.5108 27.1137 52.5422 27.1337C52.5736 27.1596 52.6063 27.1838 52.6402 27.2063L52.7318 27.274L52.826 27.3416C52.8574 27.3641 52.8888 27.3904 52.9202 27.413C52.9515 27.4355 52.9867 27.4606 53.0181 27.4831L53.1122 27.5507L53.2064 27.6184C53.2378 27.6409 53.2667 27.6672 53.2981 27.6897C53.3295 27.7123 53.3646 27.7373 53.3985 27.7599L53.4902 27.8275L53.5843 27.8951C53.6157 27.9177 53.6471 27.9427 53.6797 27.9653C53.7124 27.9878 53.7425 28.0141 53.7764 28.0366L53.8706 28.1043L53.9622 28.1719L54.0577 28.242C54.0916 28.2646 54.123 28.2909 54.1543 28.3134L54.2485 28.381C54.2799 28.4036 54.3125 28.4286 54.3427 28.4487C54.3728 28.4687 54.4042 28.4963 54.4356 28.5188C54.467 28.5413 54.5009 28.5676 54.5348 28.5902L54.6264 28.6578C54.6578 28.6804 54.6905 28.7054 54.7218 28.7254L54.816 28.7956C54.8474 28.8181 54.8788 28.8444 54.9127 28.8657L55.0081 28.9346C55.0395 28.9571 55.0684 28.9822 55.0998 29.0047L55.1939 29.0723C55.2278 29.0949 55.2592 29.1199 55.2906 29.1425C55.322 29.165 55.3546 29.1913 55.386 29.2114L55.4802 29.2815L55.5718 29.3491C55.6057 29.3717 55.6371 29.3967 55.6723 29.4193C55.7014 29.444 55.732 29.467 55.7639 29.4881L55.8581 29.5583L55.9523 29.6259C55.9837 29.6484 56.015 29.6735 56.0502 29.696C56.0854 29.7186 56.113 29.7449 56.1444 29.7637C56.1757 29.7824 56.2046 29.8125 56.236 29.835L56.3302 29.9027L56.4281 29.9728L56.4796 30.0104C54.5436 31.2627 52.5661 32.4938 50.6188 33.6911C50.5924 33.6735 50.5698 33.6535 50.5409 33.636C50.512 33.6184 50.4781 33.5884 50.4442 33.5633C50.4103 33.5383 50.384 33.5182 50.3526 33.4982C50.3212 33.4782 50.2885 33.4494 50.2547 33.4281C50.2255 33.4033 50.1949 33.3803 50.163 33.3592C50.1316 33.3341 50.1002 33.3116 50.0651 33.2865C50.0299 33.2615 50.0048 33.2415 49.9747 33.2214L49.8767 33.1475C49.8453 33.1287 49.8165 33.1025 49.7851 33.0824L49.6871 33.0098L49.5967 32.9447C49.5616 32.9196 49.5302 32.8971 49.4988 32.8708C49.4674 32.8445 49.4386 32.8257 49.4072 32.8056C49.3758 32.7856 49.3406 32.7555 49.3067 32.733C49.2728 32.7105 49.2465 32.6879 49.2151 32.6679C49.1837 32.6478 49.1523 32.6203 49.1184 32.5952C49.0845 32.5702 49.0581 32.5489 49.0267 32.5289C48.9953 32.5088 48.9627 32.4788 48.9288 32.4562L48.8372 32.3886C48.8058 32.3661 48.7744 32.341 48.7405 32.3185L48.6451 32.2496L48.5459 32.1857C48.5145 32.1632 48.4856 32.1381 48.4542 32.1156C48.4228 32.093 48.3889 32.068 48.3575 32.0455L48.2621 31.9766C48.2307 31.954 48.1993 31.929 48.1679 31.9089L48.0738 31.8388C48.0424 31.8163 48.011 31.7912 47.9759 31.7687L47.8842 31.6998C47.8528 31.6773 47.8214 31.6522 47.79 31.6322L47.6959 31.562C47.6645 31.5395 47.6331 31.5145 47.5979 31.4919L47.5038 31.4243C47.4724 31.4017 47.4435 31.3754 47.4096 31.3529L47.318 31.2853C47.2866 31.2627 47.2539 31.2377 47.22 31.2151C47.1861 31.1926 47.1572 31.1701 47.1259 31.1438C47.0945 31.1175 47.0631 31.0987 47.0342 31.0786L46.9375 31.0085C46.9049 30.986 46.8735 30.9609 46.8421 30.9409C46.8107 30.9208 46.7793 30.8933 46.7454 30.8682C46.7115 30.8432 46.6852 30.8219 46.6538 30.8031C46.6227 30.7772 46.59 30.7534 46.5558 30.7317C46.5245 30.7092 46.4956 30.6841 46.4642 30.6641C46.4328 30.6441 46.3989 30.614 46.3675 30.5915C46.3361 30.5689 46.3073 30.5451 46.2759 30.5263C46.2445 30.5076 46.2093 30.4775 46.1779 30.4524C46.1465 30.4274 46.1177 30.4074 46.0863 30.3873L45.9896 30.3147L45.8979 30.2496C45.8628 30.2233 45.8314 30.2007 45.8 30.1757C45.7686 30.1506 45.7372 30.1306 45.7058 30.1106C45.6745 30.0847 45.6418 30.0604 45.6079 30.0379C45.5765 30.0154 45.5477 29.9928 45.5163 29.9728C45.4849 29.9528 45.4535 29.9214 45.4196 29.8989L45.3279 29.8313L45.23 29.7611L45.1383 29.6935L45.0417 29.6221C43.3618 28.4086 41.2914 27.83 39.0854 27.9765L8.11766 30.0567C7.44004 30.1032 6.80335 30.3971 6.32924 30.8822C5.85513 31.3674 5.57686 32.0098 5.54759 32.6867L3.96059 65.7716C3.94142 66.1546 4.00354 66.5373 4.14287 66.8947C4.28221 67.252 4.49562 67.576 4.76915 67.8455C4.86363 67.9354 4.96387 68.019 5.06923 68.096L5.16339 68.1636C5.19478 68.1886 5.22617 68.2087 5.25881 68.2337C5.29146 68.2588 5.32159 68.2801 5.35549 68.3013C5.38939 68.3226 5.41826 68.3502 5.44714 68.3727L5.54131 68.4404C5.57395 68.4654 5.60534 68.488 5.63924 68.5105C5.66928 68.5348 5.70072 68.5574 5.7334 68.5781C5.7634 68.6037 5.79484 68.6275 5.82757 68.6495L5.91922 68.7171C5.95187 68.7422 5.98577 68.7647 6.01716 68.7873C6.04854 68.8098 6.07993 68.8324 6.11132 68.8549C6.14271 68.8774 6.1741 68.9037 6.20549 68.9263L6.30091 68.9939C6.33229 69.019 6.36368 69.0415 6.39507 69.064C6.42646 69.0866 6.45785 69.1091 6.48924 69.1354L6.5834 69.203L6.67882 69.2707C6.71021 69.2957 6.7416 69.3183 6.7755 69.3408C6.8094 69.3633 6.83827 69.3859 6.86966 69.4109C6.90105 69.436 6.93369 69.456 6.96508 69.4798C6.99647 69.5036 7.02786 69.5249 7.05674 69.5475C7.08561 69.57 7.12203 69.595 7.15341 69.6176C7.1848 69.6401 7.21619 69.6627 7.24883 69.6877L7.343 69.7566C7.37439 69.7816 7.40578 69.8017 7.43716 69.8242C7.46855 69.8468 7.49994 69.8718 7.5351 69.8969C7.57025 69.9219 7.59411 69.9394 7.62549 69.962L7.72091 70.0321C7.7523 70.0584 7.78369 70.0785 7.81508 70.101C7.84647 70.1235 7.88037 70.1486 7.91301 70.1736C7.94566 70.1987 7.97579 70.2162 8.00467 70.2388C8.03354 70.2613 8.06995 70.2863 8.10134 70.3089C8.13273 70.3314 8.16412 70.354 8.193 70.3778C8.22187 70.4016 8.25828 70.4254 8.29093 70.4504L11.4863 72.7898L10.9665 85.0354L10.8597 87.2897L10.7656 87.222L10.64 87.1294C10.5572 87.0655 10.4743 87.0041 10.3889 86.9428C10.345 86.9127 10.3048 86.8827 10.2634 86.8551C10.183 86.7887 10.0976 86.7299 10.0123 86.6685L9.88671 86.5758C8.79926 85.7273 7.43443 85.3121 6.05733 85.4111C2.92854 85.6203 0.365995 88.2314 0.214076 91.3561C0.172463 92.1307 0.294341 92.9053 0.571825 93.63C0.849309 94.3546 1.27622 95.0131 1.82493 95.5628C2.04657 95.7795 2.28642 95.9768 2.54184 96.1526C2.62596 96.2178 2.71133 96.2779 2.79294 96.3418C2.83312 96.3693 2.87581 96.3994 2.9185 96.4294C3.00262 96.4945 3.08548 96.5546 3.1696 96.616L3.29516 96.7062C3.37928 96.7713 3.46214 96.8314 3.54626 96.8953C3.59021 96.9253 3.62913 96.9554 3.67182 96.983C3.76347 97.0556 3.86015 97.1232 3.95431 97.1908C4.04848 97.2585 4.1213 97.3161 4.20542 97.3774L4.29958 97.4451C4.33725 97.4701 4.37115 97.4989 4.40882 97.524C4.46657 97.5691 4.52684 97.6116 4.58585 97.6492C4.64486 97.6868 4.66871 97.7093 4.7114 97.7394C4.79426 97.8033 4.87713 97.8646 4.96251 97.926L5.05793 97.9936L5.1659 98.0713C5.22366 98.1176 5.28141 98.1602 5.34042 98.1965L5.46598 98.2867C5.54633 98.353 5.63171 98.4119 5.71708 98.4733L5.80874 98.5409C5.84515 98.5685 5.8803 98.5935 5.91671 98.6185C5.98577 98.6724 6.05733 98.7225 6.1289 98.7726C6.1515 98.7926 6.18037 98.8076 6.20297 98.8252C6.29212 98.8953 6.38126 98.9642 6.47291 99.0268L6.56708 99.0944C6.60098 99.122 6.63864 99.147 6.67631 99.1746C6.74411 99.2247 6.81316 99.2785 6.88473 99.3261C6.9111 99.3462 6.93621 99.3612 6.96132 99.3787C7.04795 99.4489 7.1396 99.5177 7.23126 99.5804L7.35681 99.6705C7.45223 99.7432 7.5464 99.8145 7.64307 99.8797C7.66944 99.8997 7.69455 99.9135 7.72091 99.9348C7.80755 100.002 7.89543 100.071 7.9896 100.133C8.0295 100.166 8.07143 100.196 8.11515 100.224C8.20681 100.297 8.30348 100.368 8.40141 100.432C8.42401 100.453 8.45289 100.467 8.478 100.487C8.57593 100.566 8.67638 100.639 8.77933 100.709C8.80193 100.73 8.83081 100.744 8.85592 100.764C8.95385 100.843 9.05429 100.915 9.15725 100.986C9.24011 101.052 9.32298 101.111 9.40835 101.172L9.53391 101.262C9.61677 101.329 9.69964 101.388 9.78501 101.449L9.91057 101.539C9.99092 101.605 10.0738 101.664 10.1617 101.726C10.2044 101.756 10.2471 101.788 10.2872 101.816C10.3676 101.882 10.4542 101.941 10.5383 102.002C10.581 102.032 10.6237 102.065 10.6639 102.093C10.7468 102.159 10.8334 102.218 10.915 102.282C10.9552 102.312 10.9979 102.342 11.0405 102.369C11.1247 102.436 11.21 102.495 11.2917 102.558C11.3318 102.589 11.3745 102.619 11.4172 102.646C11.4988 102.713 11.5842 102.771 11.6683 102.835C11.711 102.865 11.7512 102.895 11.7939 102.923C12.102 103.168 12.4363 103.378 12.7908 103.549C12.8046 103.559 12.8209 103.569 12.836 103.582C12.851 103.594 12.8987 103.627 12.9301 103.652L13.0243 103.721C13.0569 103.746 13.0908 103.768 13.1222 103.791C13.1536 103.813 13.185 103.836 13.2139 103.858C13.2428 103.881 13.2792 103.904 13.3118 103.929C13.3445 103.954 13.3746 103.974 13.406 103.996C13.436 104.022 13.4674 104.046 13.5001 104.068C13.5315 104.093 13.5629 104.113 13.5943 104.135C13.6257 104.158 13.6571 104.18 13.6897 104.205L13.7839 104.273C13.8147 104.299 13.847 104.322 13.8806 104.344C13.9094 104.369 13.9408 104.389 13.9722 104.412C14.0036 104.435 14.0363 104.46 14.0676 104.482L14.1618 104.55C14.1932 104.576 14.2271 104.599 14.2585 104.621C14.2899 104.644 14.3213 104.666 14.3501 104.689C14.379 104.711 14.4167 104.736 14.4481 104.759C14.4795 104.781 14.5108 104.804 14.5422 104.826C14.5722 104.852 14.6037 104.876 14.6364 104.898C14.669 104.923 14.6992 104.943 14.7318 104.966C14.7645 104.988 14.7946 105.013 14.826 105.036C14.8574 105.058 14.8888 105.081 14.9201 105.103C14.9515 105.128 14.9842 105.152 15.0181 105.173C15.0472 105.198 15.0778 105.221 15.1097 105.242C15.1411 105.267 15.1725 105.29 15.2039 105.312C15.2353 105.335 15.2667 105.358 15.2981 105.38C15.3295 105.403 15.3646 105.428 15.396 105.45C15.4274 105.473 15.4588 105.495 15.4876 105.519C15.5165 105.543 15.5529 105.567 15.5843 105.589C15.6157 105.612 15.6471 105.634 15.6785 105.657C15.7099 105.679 15.7425 105.704 15.7739 105.727C15.8053 105.749 15.8367 105.772 15.8681 105.796C15.8995 105.82 15.9309 105.843 15.9622 105.866C15.9936 105.889 16.025 105.911 16.0564 105.934L16.1543 106.006C16.1832 106.03 16.2146 106.049 16.246 106.071C16.2774 106.094 16.3088 106.12 16.3402 106.143C16.3715 106.165 16.4029 106.188 16.4356 106.213C16.4682 106.238 16.5009 106.258 16.5323 106.283C16.5636 106.308 16.595 106.326 16.6239 106.348C16.6528 106.371 16.6892 106.397 16.7206 106.42C16.752 106.442 16.7846 106.465 16.816 106.49C16.8474 106.515 16.8788 106.535 16.9102 106.56L17.0043 106.627C17.0332 106.651 17.0671 106.674 17.0998 106.696C17.1324 106.719 17.1625 106.744 17.1939 106.766C17.2253 106.789 17.2567 106.811 17.2881 106.834C17.3195 106.857 17.3509 106.879 17.3822 106.904L17.4777 106.973C17.5091 106.998 17.543 107.021 17.5743 107.043C17.6057 107.066 17.6346 107.088 17.666 107.111C17.6974 107.133 17.7288 107.158 17.7602 107.181C17.7916 107.203 17.8267 107.226 17.8581 107.249C17.8881 107.274 17.9195 107.298 17.9523 107.32C17.9811 107.345 18.015 107.365 18.0464 107.388C18.0778 107.41 18.1105 107.435 18.1418 107.458C18.1732 107.48 18.2046 107.503 18.236 107.529L18.3302 107.597C18.3616 107.622 18.393 107.642 18.4243 107.664L18.5198 107.734C18.5512 107.761 18.5825 107.78 18.6139 107.806L18.7106 107.873C18.7395 107.899 18.7709 107.919 18.8023 107.941L18.8977 108.011C18.9291 108.036 18.963 108.056 18.9944 108.081C19.0257 108.106 19.0571 108.128 19.0885 108.15C19.1199 108.173 19.1526 108.195 19.1839 108.22C19.2153 108.245 19.2467 108.265 19.2781 108.288C19.3095 108.311 19.3409 108.333 19.3723 108.358L19.4677 108.427C19.4991 108.452 19.5305 108.472 19.5619 108.497L19.656 108.565C19.6874 108.59 19.7188 108.61 19.7502 108.635C19.7816 108.66 19.813 108.681 19.8456 108.704C19.8783 108.726 19.9084 108.751 19.9398 108.774L20.0339 108.842C20.0653 108.867 20.098 108.89 20.1319 108.912C20.1619 108.936 20.1934 108.959 20.226 108.979C20.256 109.005 20.2875 109.029 20.3202 109.051C20.3491 109.073 20.383 109.096 20.4144 109.118C20.4458 109.141 20.4784 109.166 20.5098 109.188C20.5412 109.211 20.5726 109.234 20.604 109.256C20.6353 109.279 20.6667 109.305 20.6981 109.327L20.7923 109.395C21.3232 109.821 21.9956 110.032 22.6756 109.986L27.0235 109.707C27.0461 109.707 27.07 109.707 27.0926 109.699L28.4548 109.608L40.9675 108.776L45.4472 108.481Z" fill="url(#paint0_linear_62_111)"/>
<path d="M39.2449 30.7167L8.27334 32.8119L6.69263 65.8943L37.6654 63.8053C41.5475 63.5436 44.8445 60.1935 45.0291 56.3225L45.9406 37.2528C46.1252 33.3817 43.1282 30.4549 39.2449 30.7167ZM34.0382 49.7814L28.1585 53.4608L22.2776 57.1415C20.5098 58.2474 18.4181 57.1553 18.511 55.1741L18.8274 48.5916L19.1425 42.0017C19.2367 40.0217 21.4464 38.6379 23.12 39.512L28.6858 42.4213L34.2516 45.3292C35.9252 46.1984 35.8072 48.6743 34.0382 49.7814ZM64.8364 56.9637C64.4598 58.2286 63.8106 59.3269 62.6455 60.0883C61.3448 60.9399 59.9963 61.1666 58.7094 60.5893C57.2944 59.9631 55.941 59.2117 54.5662 58.5066C52.3727 57.3795 50.1919 56.2248 47.9909 55.1089C47.6055 54.9136 47.4485 54.6919 47.4724 54.2223C47.7335 49.1452 47.9763 44.0694 48.2006 38.9948C48.2207 38.5314 48.3839 38.2772 48.7932 38.0242C52.2761 35.8664 55.7916 33.7662 59.2066 31.4906C62.2036 29.4981 65.5471 30.8645 65.8773 33.79C65.8902 33.8453 65.9092 33.899 65.9338 33.9503L64.8364 56.9637ZM67.0838 15.3727C66.8465 20.3484 62.6078 24.6552 57.6184 24.9909C52.6289 25.3265 48.7744 21.5669 49.0129 16.5913C49.2515 11.6156 53.4876 7.31002 58.4784 6.97314C63.4691 6.63625 67.3211 10.3946 67.0838 15.3727Z" fill="white"/>
<path d="M92.6076 30.0479L92.811 27.1049L109.084 26.0078L107.842 52.0056C107.155 66.3752 97.9147 71.3308 84.3286 72.2463C77.4093 72.7134 70.7035 71.3822 66.6255 68.6019L72.2604 58.9262C75.3603 60.8811 79.3378 61.8229 83.6305 61.5336C87.2816 61.2831 91.175 60.0057 91.3797 55.7264L91.401 55.2793C91.0582 55.7477 88.3074 58.5442 82.5407 58.9324C74.9184 59.4471 67.2533 55.5072 67.7681 44.7093C68.2891 33.7862 75.6114 27.562 83.3631 27.0398C88.232 26.7129 91.0871 28.4286 92.6076 30.0479ZM92.3452 43.5634C92.5159 39.9867 90.7368 38.4513 88.4944 38.6028C85.8679 38.7794 84.1654 40.9948 84.016 44.1257C83.864 47.3193 85.6293 49.1101 88.001 48.9498C90.0501 48.8121 92.1794 47.0124 92.3452 43.5634Z" fill="white"/>
<path d="M109.857 58.9374L111.437 25.8487L127.966 24.7341L126.386 57.8228L109.857 58.9374Z" fill="white"/>
<path d="M150.701 35.0436L150.36 42.2046C150.289 43.6736 151.177 43.8051 152.459 43.7187C153.571 43.6214 154.671 43.4193 155.745 43.115L155.854 55.5235C152.645 56.4868 149.34 57.0941 145.998 57.3344C137.541 57.9042 133.327 55.1953 133.773 45.8702L134.236 36.1607L129.753 36.4625L130.32 24.5813L134.804 24.2795L135.178 16.5437L151.643 15.4341L151.269 23.1687L157.868 22.7241L157.3 34.6052L150.701 35.0436Z" fill="white"/>
<path d="M179.287 54.2547L179.098 51.5296C176.597 54.4363 172.649 55.5372 168.928 55.7876C162.586 56.2147 157.188 52.8859 157.534 45.6673C157.89 38.1944 166.063 35.5419 173.067 34.624L180.008 33.7097L180.027 33.3265C180.088 32.0491 178.279 31.1524 174.563 31.4029C170.846 31.6534 166.566 33.0184 163.553 34.6903L160.791 25.6445C164.857 23.3903 171.416 21.1072 177.887 20.6714C189.291 19.9024 196.344 23.3101 195.759 35.5745L194.916 53.2053L179.287 54.2547ZM176.682 40.614C175.141 40.7818 173.441 41.5959 173.351 43.5132C173.262 45.3655 174.702 45.9691 176.304 45.8601C177.906 45.7512 179.293 44.7681 179.629 44.4262L179.827 40.2746L176.682 40.614Z" fill="white"/>
<path d="M197.273 53.0425L199.377 8.9669L215.909 7.85229L213.804 51.9279L197.273 53.0425Z" fill="white"/>
<path d="M126.388 17.7695C130.108 14.036 130.419 8.32926 127.084 5.02326C123.749 1.71726 118.03 2.06386 114.31 5.79742C110.59 9.53097 110.279 15.2377 113.614 18.5437C116.949 21.8497 122.669 21.5031 126.388 17.7695Z" fill="white"/>
<path d="M8.45731 93.6314C9.92461 92.1586 10.0463 89.9062 8.72911 88.6006C7.41193 87.2949 5.15466 87.4305 3.68736 88.9033C2.22006 90.3761 2.09837 92.6285 3.41555 93.9341C4.73274 95.2397 6.99001 95.1042 8.45731 93.6314Z" fill="white"/>
<path d="M124.459 82.8086C124.281 86.5569 123.321 88.8287 121.53 90.6472C119.74 92.4656 116.954 93.7017 113.195 93.9496C109.436 94.1976 106.75 93.3235 105.123 91.7317C103.496 90.14 102.746 87.9746 102.926 84.2326L103.568 70.7697L111.323 70.2575L110.663 84.061C110.596 85.4586 110.839 86.0886 111.328 86.5657C111.816 87.0429 112.483 87.3384 113.509 87.2708C114.534 87.2032 115.234 86.8174 115.768 86.2689C116.303 85.7204 116.577 85.0266 116.647 83.6627L117.306 69.8592L125.1 69.3445L124.459 82.8086Z" fill="white"/>
<path d="M155.085 90.8061L147.497 91.3071L147.866 77.8617L144.147 91.5275L137.482 91.9683L135.052 78.7108L134.136 92.1913L126.547 92.6922L129.037 69.0839L138.956 68.4289L141.32 81.0139L144.938 68.0332L154.851 67.377L155.085 90.8061Z" fill="white"/>
<path d="M180.038 89.1569L170.808 89.7668L167.252 82.1875L165.803 83.9821L165.51 90.1187L157.819 90.6271L158.949 67.109L166.64 66.6006L166.297 73.7578L171.596 66.2725L180.654 65.6738L172.579 75.6526L180.038 89.1569Z" fill="white"/>
<path d="M208.922 87.2471L201.333 87.7481L201.702 74.3027L197.983 87.9697L191.318 88.4168L188.885 75.1568L187.968 88.6385L180.38 89.1394L182.869 65.5324L192.788 64.8762L195.151 77.4612L198.769 64.4804L208.688 63.8254L208.922 87.2471Z" fill="white"/>
<path d="M23.9537 99.6453L14.3313 100.285L15.2165 83.5412L19.0898 83.282L18.3766 96.7749L24.1257 96.3992L23.9537 99.6453Z" fill="white"/>
<path d="M29.6061 99.2697L25.714 99.529L26.5929 82.7849L30.485 82.5256L29.6061 99.2697Z" fill="white"/>
<path d="M47.9319 81.3647L40.8884 98.5221L37.1833 98.7726L31.91 82.438L36.0533 82.1625L39.3415 93.4338L43.8238 81.649L47.9319 81.3647Z" fill="white"/>
<path d="M59.4351 97.2848L48.4655 98.0149L49.3507 81.2708L60.1031 80.5544L59.9373 83.6853L53.0583 84.1437L52.8775 87.5652L59.3723 87.1331L59.2066 90.264L52.7117 90.6961L52.5058 94.5784L59.6021 94.1063L59.4351 97.2848Z" fill="white"/>
<path d="M71.0526 96.512L69.7782 96.5971L70.131 89.9195C70.2277 88.0999 70.013 86.2514 67.6074 86.4129C65.2018 86.5745 63.9362 88.7611 63.7944 91.4299L63.4993 97.0117L62.2438 97.0956L63.1289 80.3502L64.3845 80.2676L63.989 87.8419C64.6167 86.4705 66.1058 85.4273 67.7179 85.3196C70.917 85.1067 71.5536 87.1205 71.4117 89.7893L71.0526 96.512Z" fill="white"/>
<path d="M83.2489 95.7005L81.9933 95.7832L82.0887 93.9635C81.7135 94.6282 81.1762 95.1877 80.5266 95.5903C79.877 95.9929 79.136 96.2255 78.3724 96.2666C76.808 96.3705 75.9693 95.9184 75.4319 95.2046C74.8945 94.4907 74.6987 93.301 74.7866 91.718L75.1406 85.0204L76.3962 84.9365L76.0321 91.8245C75.9417 93.5239 76.1576 95.3223 78.6122 95.1595C81.0893 94.9942 82.1666 92.7462 82.2821 90.5621L82.6023 84.5194L83.8578 84.4368L83.2489 95.7005Z" fill="white"/>
<path d="M92.3766 95.3347C90.6929 95.4474 89.1913 94.8212 88.3413 93.2332L88.2283 95.3623L86.9728 95.4462L87.8517 78.7021L89.1072 78.6182L88.7029 86.2576C89.8743 84.4867 91.4249 83.7303 93.037 83.6276C96.3566 83.4059 98.3906 85.7378 98.2136 89.0867C98.0441 92.4242 95.7439 95.1105 92.3766 95.3347ZM92.9378 84.7297C90.2196 84.9113 88.6163 87.1217 88.4769 89.7391C88.3401 92.3353 89.7186 94.3729 92.4369 94.19C95.1312 94.0109 96.7597 91.7755 96.8965 89.1806C97.0359 86.5606 95.6284 84.5506 92.9378 84.7297Z" fill="white"/>
</g>
<defs>
<linearGradient id="paint0_linear_62_111" x1="-1.62696" y1="59.8983" x2="231.016" y2="45.9043" gradientUnits="userSpaceOnUse">
<stop stop-color="#ED1C77"/>
<stop offset="0.15" stop-color="#DE2179"/>
<stop offset="0.44" stop-color="#B72E7D"/>
<stop offset="0.83" stop-color="#794384"/>
<stop offset="0.99" stop-color="#5D4D87"/>
</linearGradient>
<clipPath id="clip0_62_111">
<rect width="228" height="110" fill="white" transform="translate(0.207825)"/>
</clipPath>
</defs>
</svg>
