<svg width="17" height="17" viewBox="0 0 17 17" fill="none" xmlns="http://www.w3.org/2000/svg">
<path d="M2.26469 9.1576C3.30504 9.38807 4.21122 10.0224 4.78389 10.921C5.35656 11.8196 5.54881 12.9089 5.31834 13.9492C5.20311 14.4694 5.29923 15.014 5.58556 15.4633C5.8719 15.9126 6.32499 16.2298 6.84516 16.345C7.36534 16.4603 7.90998 16.3641 8.35928 16.0778C8.80859 15.7915 9.12574 15.3384 9.24097 14.8182C9.47144 13.7779 10.1057 12.8717 11.0044 12.299C11.903 11.7263 12.9922 11.5341 14.0326 11.7646C14.5528 11.8798 15.0974 11.7837 15.5467 11.4973C15.996 11.211 16.3132 10.7579 16.4284 10.2377C16.5436 9.71757 16.4475 9.17292 16.1612 8.72362C15.8748 8.27432 15.4218 7.95717 14.9016 7.84193C13.8612 7.61146 12.9551 6.97715 12.3824 6.07855C11.8097 5.17995 11.6175 4.09066 11.8479 3.05031C11.9632 2.53014 11.867 1.98549 11.5807 1.53619C11.2944 1.08689 10.8413 0.769736 10.3211 0.654501C9.80094 0.539266 9.25629 0.635387 8.80699 0.921722C8.35769 1.20806 8.04054 1.66115 7.9253 2.18132C7.69483 3.22167 7.06052 4.12785 6.16192 4.70052C5.26332 5.27319 4.17403 5.46544 3.13368 5.23497C2.61351 5.11974 2.06886 5.21586 1.61956 5.50219C1.17026 5.78853 0.853105 6.24162 0.737871 6.76179C0.622636 7.28197 0.718757 7.82661 1.00509 8.27591C1.29143 8.72522 1.74452 9.04237 2.26469 9.1576Z" fill="#644B86"/>
</svg>
